<svg xmlns="http://www.w3.org/2000/svg" width="512" height="512" viewBox="0 0 512 512">
  <rect width="512" height="512" rx="120" fill="#000"/>
  <rect x="24" y="24" width="464" height="464" rx="108" fill="#08080b" stroke="#16161b" stroke-width="4"/>
  <path
    d="M276.76 447.34c-7.54 9.58-22.93 4.25-22.93-7.91V322.68c0-14.48-11.91-26.39-26.4-26.39H94.67c-10.73 0-16.99-12.14-10.74-20.87l87.32-122.19c12.49-17.47 0-41.76-21.5-41.76H-11.04c-10.74 0-17-12.14-10.74-20.87L91.38-66.76c2.49-3.46 6.49-5.52 10.74-5.52H439.4c10.74 0 17 12.14 10.74 20.87L362.82 71.78c-12.48 17.48 0 41.76 21.5 41.76h132.77c11 0 17.18 12.69 10.39 21.36L276.76 447.34Z"
    fill="#863bff"
    transform="translate(3 73) scale(0.92)"
  />
  <circle cx="370" cy="126" r="36" fill="#47bfff"/>
</svg>
